<?xml version="1.0" encoding="UTF-8" standalone="no"?>
<!DOCTYPE svg PUBLIC "-//W3C//DTD SVG 1.1//EN" "http://www.w3.org/Graphics/SVG/1.1/DTD/svg11.dtd">
<svg width="100%" height="100%" viewBox="0 0 64 64" version="1.1" xmlns="http://www.w3.org/2000/svg" xmlns:xlink="http://www.w3.org/1999/xlink" xml:space="preserve" xmlns:serif="http://www.serif.com/" style="fill-rule:evenodd;clip-rule:evenodd;stroke-linejoin:round;stroke-miterlimit:2;">
    <g id="ArtBoard1" transform="matrix(0.08,0,0,0.106667,0,0)">
        <rect x="0" y="0" width="800" height="600" style="fill:none;"/>
        <g transform="matrix(15.4817,0,0,11.6113,-157.675,-152.498)">
            <circle cx="36.021" cy="38.971" r="25.029" style="fill:white;"/>
        </g>
        <g transform="matrix(15.4817,0,0,11.6113,-157.675,-152.498)">
            <path d="M36.021,13.941C49.836,13.941 61.051,25.156 61.051,38.971C61.051,52.785 49.836,64 36.021,64C22.207,64 10.992,52.785 10.992,38.971C10.992,25.156 22.207,13.941 36.021,13.941ZM36.021,17.171C48.053,17.171 57.821,26.939 57.821,38.971C57.821,51.002 48.053,60.77 36.021,60.77C23.99,60.77 14.222,51.002 14.222,38.971C14.222,26.939 23.99,17.171 36.021,17.171Z" style="fill:rgb(255,194,0);"/>
        </g>
        <g transform="matrix(10.5165,0,0,7.57663,47.6994,54.501)">
            <path d="M16.742,45.082C15.899,45.082 15.256,44.839 14.812,44.354C14.368,43.869 14.146,43.188 14.146,42.31L14.146,23.082C14.146,22.181 14.374,21.5 14.829,21.038C15.283,20.576 15.932,20.345 16.776,20.345L24.863,20.345C27.481,20.345 29.5,21.032 30.92,22.406C32.34,23.78 33.05,25.692 33.05,28.14C33.05,30.588 32.34,32.505 30.92,33.891C29.5,35.277 27.481,35.97 24.863,35.97L19.305,35.97L19.305,42.31C19.305,43.188 19.089,43.869 18.656,44.354C18.223,44.839 17.585,45.082 16.742,45.082ZM19.305,31.813L23.998,31.813C25.329,31.813 26.344,31.501 27.043,30.877C27.742,30.253 28.091,29.341 28.091,28.14C28.091,26.939 27.742,26.038 27.043,25.438C26.344,24.837 25.329,24.537 23.998,24.537L19.305,24.537L19.305,31.813Z" style="fill:rgb(255,194,0);fill-rule:nonzero;"/>
            <path d="M44.632,45.151C43.7,45.151 42.751,45.076 41.786,44.926C40.821,44.776 39.9,44.562 39.024,44.285C38.148,44.008 37.365,43.661 36.678,43.246C36.19,42.969 35.846,42.605 35.646,42.154C35.446,41.704 35.374,41.248 35.43,40.786C35.485,40.324 35.652,39.914 35.929,39.556C36.206,39.198 36.561,38.967 36.994,38.863C37.426,38.759 37.909,38.846 38.442,39.123C39.351,39.654 40.344,40.047 41.42,40.301C42.496,40.555 43.567,40.682 44.632,40.682C46.252,40.682 47.405,40.422 48.093,39.902C48.781,39.383 49.125,38.73 49.125,37.945C49.125,37.275 48.881,36.744 48.393,36.351C47.905,35.959 47.05,35.624 45.83,35.346L42.069,34.515C39.939,34.053 38.358,33.262 37.327,32.142C36.295,31.021 35.779,29.549 35.779,27.724C35.779,26.569 36.012,25.519 36.478,24.572C36.944,23.625 37.598,22.805 38.442,22.112C39.285,21.419 40.289,20.887 41.454,20.518C42.618,20.148 43.9,19.964 45.297,19.964C46.54,19.964 47.76,20.12 48.958,20.431C50.157,20.743 51.21,21.199 52.12,21.8C52.564,22.077 52.869,22.429 53.035,22.857C53.202,23.284 53.257,23.711 53.202,24.138C53.146,24.566 52.98,24.941 52.703,25.264C52.425,25.588 52.076,25.796 51.654,25.888C51.233,25.98 50.722,25.877 50.123,25.576C49.391,25.184 48.615,24.895 47.794,24.71C46.973,24.525 46.13,24.433 45.264,24.433C44.332,24.433 43.539,24.56 42.885,24.814C42.23,25.068 41.731,25.426 41.387,25.888C41.043,26.35 40.871,26.881 40.871,27.482C40.871,28.152 41.104,28.694 41.57,29.11C42.036,29.526 42.846,29.861 44,30.115L47.76,30.946C49.935,31.431 51.554,32.211 52.619,33.285C53.684,34.359 54.217,35.774 54.217,37.529C54.217,38.684 53.995,39.729 53.551,40.665C53.107,41.6 52.464,42.403 51.621,43.073C50.778,43.742 49.768,44.256 48.592,44.614C47.416,44.972 46.096,45.151 44.632,45.151Z" style="fill:rgb(255,194,0);fill-rule:nonzero;"/>
        </g>
    </g>
</svg>
